<svg id="a5c09465-211d-46eb-bfac-fccfe6434497" data-name="Calque 1" xmlns="http://www.w3.org/2000/svg" xmlns:xlink="http://www.w3.org/1999/xlink">
    <symbol id="mag-icon"  viewBox="0 0 70.57 70.57">
        <defs>
            <style>
                .magnifier-icon-rectElt,
                .magnifier-icon-stroke {
                    fill: none;
                }
                
                .magnifier-icon-container {
                    clip-path: url(#bbe8a21e-3a81-4552-b2ac-b6c7f6e1df28);
                }
                
                .magnifier-icon-part {
                    fill: var(--main-color);
                }
                
                .magnifier-icon-stroke {
                    stroke: var(--main-color);
                    stroke-miterlimit: 10;
                    stroke-width: 5px;
                }
            </style>
            <clipPath id="bbe8a21e-3a81-4552-b2ac-b6c7f6e1df28" transform="translate(0 0)">
                <rect class="magnifier-icon-rectElt" width="70.57" height="70.57" />
            </clipPath>
        </defs>
        <title>loupe</title>
        <g class="magnifier-icon-container">
            <path class="magnifier-icon-part" d="M39.11,70.37A35.29,35.29,0,1,1,70.37,39.12,35.33,35.33,0,0,1,39.11,70.37M38.68,4.18A31.29,31.29,0,1,0,66.39,31.89,31.32,31.32,0,0,0,38.68,4.18" transform="translate(0 0)" />
            <path class="magnifier-icon-stroke" d="M38.06,25.69a8.75,8.75,0,1,1-12.37,0A8.74,8.74,0,0,1,38.06,25.69Z" transform="translate(0 0)" />
            <line class="magnifier-icon-stroke" x1="47.44" y1="47.44" x2="38.06" y2="38.06" />
        </g>
    </symbol>
</svg>